# xmcd CD database file
#
# Track frame offsets:
#	150
#	12501
#	25802
#	38907
#	51147
#	65197
#	78947
#	91476
#	105218
#	118198
#	132250
#	144772
#	158884
#	174107
#	186102
#	200438
#	213765
#	226816
#	239949
#	253478
#
# Disc length: 3563 seconds
#
# Revision: 1
# Processed by: cddbd v1.5.1PL0 Copyright (c) Steve Scherf et al.
# Submitted via: jetAudio 5
#
DISCID=130de914
DTITLE=Various Artist - Ruff Scuffin'
DYEAR=1900
DGENRE=
TTITLE0=Everybody Loves My Baby
TTITLE1=Atlanta Low Down
TTITLE2=Boot to Boot
TTITLE3=Florida Rhythm
TTITLE4=West End Blues
TTITLE5=Ruff Scufflin'
TTITLE6=Savoy Rhythm
TTITLE7=Jelly Bean Drag
TTITLE8=Auburn Avenue Stomp
TTITLE9=Starvation Blues
TTITLE10=Skad-O-Lee
TTITLE11=Sensational Mood
TTITLE12=Wabash Blues
TTITLE13=Original Dixieland Onestep
TTITLE14=Froggy Bottom
TTITLE15=Off and On Blues
TTITLE16=Operator Special
TTITLE17=State Shuffle
TTITLE18=You Don't Mean Me No Good
TTITLE19=After You've Gone
EXTD=
EXTT0=
EXTT1=
EXTT2=
EXTT3=
EXTT4=
EXTT5=
EXTT6=
EXTT7=
EXTT8=
EXTT9=
EXTT10=
EXTT11=
EXTT12=
EXTT13=
EXTT14=
EXTT15=
EXTT16=
EXTT17=
EXTT18=
EXTT19=
PLAYORDER=
